# xmcd
#
# Track frame offsets: 
#        150
#        15154
#        31104
#        43984
#        59527
#        78504
#        97299
#        111445
#        121762
#        141166
#        153388
#        166038
#
# Disc length: 2346 seconds
#
# Revision: 3
# Processed by: cddbd v1.5.2PL0 Copyright (c) Steve Scherf et al.
# Submitted via: ExactAudioCopy v1.1
#
DISCID=9709280c
DTITLE=Louisiana Red - Little Victor's Juke Joint - Back to the black b
DTITLE=ayou
DYEAR=2009
DGENRE=Blues 
TTITLE0=I'm Lousiana Red
TTITLE1=Alabama train
TTITLE2=Crime in motion
TTITLE3=Ride on, Red, ride on
TTITLE4=Sweet leg girl
TTITLE5=The black bayou
TTITLE6=Too poor to die
TTITLE7=Don't miss that train
TTITLE8=You done quit me
TTITLE9=I come from Louisiana
TTITLE10=Roamin' stranger
TTITLE11=At the Zansibar
EXTD=
EXTT0=
EXTT1=
EXTT2=
EXTT3=
EXTT4=
EXTT5=
EXTT6=
EXTT7=
EXTT8=
EXTT9=
EXTT10=
EXTT11=
PLAYORDER=
